<svg width="208" height="75" viewBox="0 0 208 75" fill="none" xmlns="http://www.w3.org/2000/svg">
<path d="M33.9219 0.60791H37.5781L39.8125 0.809783L41.8438 1.21353L44.0781 2.02102L44.5859 2.5257L44.8906 3.13132V3.83788L44.6875 4.54444L46.4141 5.25099L47.8359 6.15942L48.8516 7.06785L49.6641 7.87534L50.2734 8.88471L50.6797 9.79314V11.3072L50.2734 12.1147L49.7656 12.5184L49.5625 12.7203L50.7812 13.4269L52.1016 14.6381L53.2188 16.1521L53.9297 17.3634L54.6406 19.0793L55.0469 20.6943V22.713L54.5391 23.7224L54.0312 24.2271L53.3203 24.6308H52.4062L51.5938 24.2271L50.8828 23.4196L50.5781 22.4102L50.4766 20.7952L49.8672 19.1802L49.5625 18.7765L48.8516 18.4737L49.7656 20.5933L50.2734 22.6121L50.375 23.3186V24.7317L49.9688 26.3467L49.3594 27.457L48.8516 27.9617L48.3438 28.3655L47.6328 28.6683H46.6172L46.0078 28.2645L45.5 27.457L45.3984 27.0533V26.0439L45.7031 24.8327V23.4196L45.3984 22.5111V25.0346L44.9922 26.2458L44.1797 27.2552L43.4688 27.6589L42.9609 27.7598H42.1484L41.5391 27.457L40.7266 26.5486L40.4219 25.6402L40.0156 24.6308L39.4062 23.8233L38.3906 23.1168L37.5781 22.814L36.1562 22.6121H35.0391L33.2109 22.9149L31.6875 23.5205L30.3672 24.328L29.3516 25.1355L28.4375 25.943L27.2188 27.558L26.1016 29.6776L25.3906 31.8982L25.0859 33.5132L24.9844 34.7245V36.7432L25.2891 39.1657L25.8984 41.4872L26.3047 42.4966L27.3203 43.6069L28.6406 44.4144L30.1641 45.02L31.1797 45.1209L33.0078 44.7172L34.3281 44.5153L36.4609 44.4144L37.4766 44.6162L38.4922 45.3228L39.3047 45.7265L40.9297 45.6256L43.3672 45.2219L46.4141 44.5153L47.6328 44.1116H48.2422L49.1562 45.3228L49.8672 45.2219L51.4922 44.7172H52.4062L53.5234 45.5247L55.0469 46.3322L56.0625 46.7359L56.5703 46.534L58.1953 45.6256L58.9062 45.7265L59.3125 46.3322L59.9219 46.1303L61.1406 45.5247L62.1562 45.2219H62.8672L64.2891 46.0294L65.8125 46.635L67.6406 47.1397L69.3672 47.3415L70.4844 46.534L71.6016 45.4237L72.5156 44.0106L73.125 42.4966L73.4297 41.6891L73.7344 41.3863L74.2422 41.4872L74.6484 41.9919V43.8088L74.2422 46.2312L73.5312 49.0575L72.6172 51.9846L71.8047 54.0033L70.6875 56.0221L69.4688 57.9399L68.25 59.6558L67.3359 60.7661L66.1172 62.1792L65.4062 62.8858L64.6953 63.6933L62.6641 65.5101L61.2422 66.6204L59.4141 67.9326L56.875 69.4466L55.1484 70.3551L52.3047 71.5663L49.2578 72.5757L46.4141 73.2822L43.0625 73.7869L41.8438 73.8878H36.4609L33.6172 73.585L30.4688 72.9794L27.625 72.1719L25.5938 71.4654L23.2578 70.456L21.6328 69.6485L20.3125 68.942L18.1797 67.6298L16.3516 66.3176L14.7266 65.0054L13.7109 64.097L12.8984 63.3904L11.1719 61.6745L10.4609 60.867L9.03906 59.1511L7.71875 57.3343L6.39844 55.2146L5.38281 53.3977L4.16406 50.8743L3.25 48.4518L2.53906 46.3322L1.82812 43.3041L1.42188 40.7807L1.21875 38.7619V33.6142L1.52344 30.7879L2.13281 27.6589L2.84375 25.1355L3.65625 22.814L4.36719 21.098L5.17969 19.483L6.29688 17.4643L7.92188 15.0418L8.83594 13.8306L9.75 12.7203L10.6641 11.7109L11.375 10.9034L12.6953 9.59126L13.5078 8.88471L14.8281 7.77441L16.4531 6.56317L18.4844 5.25099L20.6172 4.03975L22.9531 2.82851L26 1.81915L28.7422 1.21353L31.3828 0.809783L33.9219 0.60791Z" fill="#174295"/>
<path d="M32.5 2.22266H37.1719L39.9141 2.52547L41.8438 2.92921L42.8594 3.33296L43.0625 3.7367L42.5547 3.93858L40.5234 4.14045L40.1172 4.34232L40.2188 4.64513L41.5391 5.04888L44.0781 5.6545L45.6016 6.26012L47.0234 7.06761L48.0391 7.8751L48.6484 8.37979L49.3594 9.49009L49.5625 9.99477V11.1051L49.1562 11.8116L48.5469 12.1144H47.8359L47.125 11.8116L46.3125 11.1051L44.9922 9.69196L44.4844 9.18728L43.9766 8.78353L43.2656 8.48072H42.3516L41.2344 8.88447L40.5234 9.69196L40.3203 10.0957V11.0041L40.9297 11.9126L42.0469 12.821L41.8438 12.4172L41.0312 11.4079L40.8281 10.9032V10.0957L41.1328 9.59102L41.3359 9.38915L41.7422 9.28821H42.5547L43.2656 9.59102L43.0625 10.0957L42.7578 10.7013L42.8594 11.3069L43.2656 11.7107L44.4844 12.2154L46.2109 12.7201L48.2422 13.5275L49.5625 14.2341L50.7812 15.3444L51.5938 16.1519L52.5078 17.3631L53.2188 18.7762L53.625 20.3912L53.7266 22.0062L53.4219 23.2175L53.2188 23.4193L52.8125 23.3184L52.4062 22.8137L52 21.6025L51.7969 19.5837L51.2891 18.6753L50.375 17.8678L48.9531 17.1613H47.9375L47.5312 17.6659L47.6328 18.4734L48.4453 20.0884L49.1562 21.9053L49.2578 22.309L49.3594 24.025L49.1562 25.6399L48.5469 26.8512L47.9375 27.3559L47.2266 27.4568L46.8203 27.154L46.6172 26.5484V25.7409L46.8203 24.5296L47.0234 23.5203L46.7188 22.5109L46.0078 21.5015L45.2969 20.795L44.3828 20.3912L43.6719 20.4922L43.7734 21.5015L44.1797 22.8137L44.3828 23.8231V24.5296L43.9766 25.7409L43.1641 26.4474L42.3516 26.5484L41.8438 26.2456L41.6406 25.9427L41.5391 23.924L41.2344 22.41L40.7266 21.0978L40.0156 20.0884L39.2031 19.2809L37.8828 18.4734L36.7656 17.9688L35.2422 17.4641L33.4141 17.1613H29.8594L27.5234 17.4641L25.4922 17.9688L23.9688 18.4734L22.4453 19.18L21.0234 19.9875L19.8047 20.8959L18.7891 21.8043L17.9766 22.6118L16.9609 24.025L16.1484 25.3371L15.5391 26.7502L14.9297 27.8605L14.625 27.7596L14.7266 26.0437V24.8324L14.625 24.6306L14.0156 24.7315L13.2031 25.4381L12.4922 26.5484L11.9844 27.8605L11.5781 29.4755L11.375 30.7877V34.1186L11.7812 36.743L12.1875 38.5598L13.1016 41.386L14.2188 44.5151L15.4375 47.4422L16.5547 49.8647L16.4531 50.1675L15.8438 49.8647H14.8281L14.2188 50.2685L13.9141 50.6722L13.8125 50.975V51.8834L14.2188 53.1956L15.1328 54.8106L16.1484 56.2237L17.1641 57.5359L18.2812 58.8481L18.9922 59.6556L19.9062 60.6649L22.75 63.4911L23.8672 64.3996L25.0859 65.4089L26.6094 66.5192L28.1328 67.5286L30.3672 68.7398L32.3984 69.5473L34.7344 70.052H35.9531L33.8203 69.2445L31.2812 68.1342L28.3359 66.6202L26.3047 65.4089L24.2734 63.9958L22.5469 62.5827L21.0234 61.1696L19.5 59.5546L18.4844 58.4443L17.5703 57.334L16.0469 55.3153L15.1328 53.8012L14.5234 52.4891L14.3203 51.7825V50.975L14.8281 50.4703H15.7422L16.7578 50.975L17.4688 51.6816L17.875 52.1862L18.2812 52.2872L18.1797 51.3788L17.5703 50.1675L16.4531 48.3507L15.9453 47.1394L15.8438 46.3319L16.1484 46.6347L16.9609 48.3507L17.7734 49.461L18.4844 50.3694L18.6875 50.4703L18.2812 49.2591L17.6719 47.846L17.7734 47.6441L18.8906 48.8553L19.9062 51.2778L20.7188 52.8928L21.7344 54.6087L22.75 56.0218L23.6641 57.1321L24.5781 58.1415L26.5078 60.0593L27.9297 61.1696L29.25 62.078L30.6719 62.7846L30.9766 62.8855L30.5703 62.179L29.25 61.0687L28.1328 60.1602L27.1172 59.2518L25.7969 57.8387L24.4766 56.1228L23.4609 54.6087L22.5469 53.0947L21.3281 50.7731L20.3125 48.4516L18.7891 44.1113L17.875 41.9917L17.2656 41.0832L16.9609 40.9823V39.6701H17.3672L18.0781 40.5785L19.2969 43.001L20.1094 44.2123L20.6172 44.616H20.9219L21.2266 41.5879L21.7344 39.6701L21.9375 39.5692L22.0391 42.4963L22.3438 44.8179L22.8516 47.2404L24.0703 50.8741L25.4922 53.8012L26.7109 55.719L27.8281 57.1321L29.0469 58.5452L30.1641 59.5546L31.9922 60.7659L33.9219 61.7752L35.3438 62.2799L35.4453 62.179L33.1094 60.8668L32.5 60.564V60.3621L31.9922 60.1602L30.4688 59.1509L29.3516 58.2424L28.2344 57.1321L27.2188 55.719L26.1016 53.8012L25.0859 51.6816L24.4766 50.1675L24.5781 49.9656L25.8984 52.0853L26.9141 53.3975L28.1328 54.7097L29.25 55.719L30.7734 56.7284L31.9922 57.334L33.5156 57.8387L35.2422 58.1415L37.4766 58.3434H43.0625L43.9766 58.6462L45.6016 59.4537L47.4297 60.463L49.0547 61.1696L50.8828 61.7752L52.7109 62.078H59.4141L61.1406 61.6743L63.7812 60.564L65.8125 59.5546L67.4375 58.5452L67.6406 58.6462L66.7266 59.7565L65.8125 60.7659L63.9844 61.7752L61.9531 62.5827L59.7188 63.1883L57.2812 63.5921L56.2656 63.693H52.9141L50.1719 63.2893L47.9375 62.7846V63.2893L48.4453 63.9958L48.3438 64.3996L48.1406 64.5005H47.125L45.5 64.0968L43.875 63.2893L43.0625 62.6836L41.9453 61.4724L41.4375 60.9677L41.1328 60.8668V62.4818L41.5391 63.4911L42.25 64.6014L43.0625 65.6108L43.3672 66.3174L43.1641 66.5192L40.625 66.6202L40.8281 67.1249L41.6406 67.6295L43.2656 68.1342L45.9062 68.6389L49.2578 69.0427H54.1328L54.0312 69.2445L52 70.052L50.375 70.6576L47.8359 71.3642L44.6875 71.9698L42.1484 72.2726L39.3047 72.3736L36.4609 72.2726L33.8203 71.9698L31.1797 71.4651L28.5391 70.7586L25.8984 69.8501L22.9531 68.538L20.9219 67.4277L18.8906 66.1155L17.0625 64.8033L15.6406 63.5921L14.8281 62.8855L13.4062 61.5733L12.6953 60.7659L11.5781 59.5546L10.4609 58.1415L9.24219 56.4256L8.02344 54.5078L6.70312 52.0853L5.48438 49.2591L4.26562 45.5244L3.65625 42.3954L3.35156 40.0739L3.25 38.8626V34.0177L3.55469 31.1914L4.16406 28.0624L4.97656 25.2362L5.99219 22.5109L6.80469 20.694L8.125 18.1706L9.64844 15.8491L10.6641 14.436L11.7812 13.1238L12.4922 12.3163L13.4062 11.3069L14.4219 10.2976L15.2344 9.59102L16.5547 8.48072L18.3828 7.16855L20.5156 5.85637L22.4453 4.84701L24.9844 3.83764L26.8125 3.23202L28.9453 2.72734L31.4844 2.32359L32.5 2.22266Z" fill="#1A82BF"/>
<path d="M32.5 2.22266H37.1719L39.9141 2.52547L41.8438 2.92921L42.8594 3.33296L43.0625 3.7367L42.5547 3.93858L40.5234 4.14045L40.1172 4.34232L40.2188 4.64513L41.5391 5.04888L44.0781 5.6545L45.6016 6.26012L47.0234 7.06761L48.0391 7.8751L48.6484 8.37979L49.3594 9.49009L49.5625 9.99477V11.1051L49.1562 11.8116L48.5469 12.1144H47.8359L47.125 11.8116L46.3125 11.1051L44.9922 9.69196L44.4844 9.18728L43.9766 8.78353L43.2656 8.48072H42.3516L41.2344 8.88447L40.5234 9.69196L40.3203 10.0957V11.0041L40.9297 11.9126L42.0469 12.821L41.8438 12.4172L41.0312 11.4079L40.8281 10.9032V10.0957L41.1328 9.59102L41.3359 9.38915L41.7422 9.28822H42.5547L43.2656 9.59102L43.0625 10.0957L42.7578 10.7013L42.8594 11.3069L43.2656 11.7107L44.4844 12.2154L46.2109 12.7201L48.2422 13.5276L49.5625 14.2341L50.7812 15.3444L51.5938 16.1519L52.5078 17.3631L53.2188 18.7763L53.625 20.3912L53.7266 22.0062L53.4219 23.2175L53.2188 23.4193L52.8125 23.3184L52.4062 22.8137L52 21.6025L51.7969 19.5837L51.2891 18.6753L50.375 17.8678L48.9531 17.1613H47.9375L47.5312 17.6659L47.6328 18.4734L48.4453 20.0884L49.1562 21.9053L49.2578 22.309L49.3594 24.025L49.1562 25.6399L48.5469 26.8512L47.9375 27.3559L47.2266 27.4568L46.8203 27.154L46.6172 26.5484V25.7409L46.8203 24.5296L47.0234 23.5203L46.7188 22.5109L46.0078 21.5015L45.2969 20.795L44.3828 20.3912L43.6719 20.4922L43.7734 21.5015L44.1797 22.8137L44.3828 23.8231V24.5296L43.9766 25.7409L43.1641 26.4474L42.3516 26.5484L41.8438 26.2456L41.6406 25.9427L41.5391 23.924L41.2344 22.41L40.7266 21.0978L40.0156 20.0884L39.2031 19.2809L37.8828 18.4734L36.7656 17.9688L35.2422 17.4641L33.4141 17.1613H29.8594L27.5234 17.4641L25.4922 17.9688L23.9688 18.4734L22.4453 19.18L21.0234 19.9875L19.8047 20.8959L18.7891 21.8043L17.9766 22.6118L16.9609 24.025L16.1484 25.3371L15.5391 26.7502L14.9297 27.8605L14.625 27.7596L14.7266 26.0437V24.8324L14.625 24.6306L14.0156 24.7315L13.2031 25.4381L12.4922 26.5484L11.9844 27.8605L11.5781 29.4755L11.375 30.7877V34.1186L11.7812 36.743L12.1875 38.5598L13.1016 41.386L14.2188 44.5151L15.4375 47.4422L16.5547 49.8647L16.4531 50.1675L15.8438 49.8647H14.8281L14.2188 50.2685L13.9141 50.6722L13.8125 50.975V51.8834L14.2188 53.1956L15.1328 54.8106L16.1484 56.2237L17.1641 57.5359L18.2812 58.8481L18.9922 59.6556L19.9062 60.6649L22.75 63.4911L23.8672 64.3996L25.0859 65.4089L26.6094 66.5192L27.0156 66.923L26.5078 66.8221L23.9688 65.6108L22.2422 64.6014L20.8203 63.3902L19.1953 61.8762L17.5703 60.1602L16.6562 59.0499L15.4375 57.5359L14.4219 56.0218L13.4062 54.104L13 52.4891V50.8741L13.4062 49.7638L13.9141 49.2591L14.5234 48.8553L14.625 48.7544L14.5234 47.846L14.0156 46.6347L12.2891 43.3038L11.5781 41.6888L10.8672 39.6701L10.4609 38.1561L10.2578 37.2476L10.1562 36.0364V32.2008L10.2578 30.9896L10.4609 29.8793L10.8672 27.8605L10.9688 25.9427L11.375 24.5296L12.2891 22.41L13.1016 20.694L13.3047 20.1894L13.4062 19.3819L12.1875 19.18L11.6797 18.8772L11.7812 17.9688L12.1875 16.6566L12.4922 15.8491V15.3444L12.0859 15.0416L10.6641 15.7482L9.64844 16.6566L8.42969 18.4734L6.90625 20.8959L6.80469 20.694L8.125 18.1706L9.64844 15.8491L10.6641 14.436L11.7812 13.1238L12.4922 12.3163L13.4062 11.3069L14.4219 10.2976L15.2344 9.59102L16.5547 8.48072L18.3828 7.16855L20.5156 5.85637L22.4453 4.84701L24.9844 3.83764L26.8125 3.23202L28.9453 2.72734L31.4844 2.32359L32.5 2.22266Z" fill="#FEFEFD"/>
<path d="M17.0625 39.5693L17.4688 39.7712L18.1797 40.7806L19.2969 43.0012L20.1094 44.2124L20.6172 44.6162H20.9219L21.2266 41.5881L21.7344 39.6703L21.9375 39.5693L22.0391 42.4965L22.3438 44.818L22.8516 47.2405L24.0703 50.8742L25.4922 53.8014L26.7109 55.7192L27.8281 57.1323L29.0469 58.5454L30.1641 59.5548L31.9922 60.766L33.9219 61.7754L35.3438 62.2801L35.4453 62.1791L33.1094 60.8669L32.5 60.5641V60.3623L31.9922 60.1604L30.4688 59.151L29.3516 58.2426L28.2344 57.1323L27.2188 55.7192L26.1016 53.8014L25.0859 51.6817L24.4766 50.1677L24.5781 49.9658L25.8984 52.0855L26.9141 53.3976L28.1328 54.7098L29.25 55.7192L30.7734 56.7286L31.9922 57.3342L33.5156 57.8389L35.2422 58.1417L37.4766 58.3435H43.0625L43.9766 58.6463L45.6016 59.4538L47.4297 60.4632L49.0547 61.1698L50.8828 61.7754L52.7109 62.0782H59.4141L61.1406 61.6744L63.7812 60.5641L65.8125 59.5548L67.4375 58.5454L67.6406 58.6463L66.7266 59.7566L65.8125 60.766L63.9844 61.7754L61.9531 62.5829L59.7188 63.1885L57.2812 63.5922L56.2656 63.6932H52.9141L50.1719 63.2894L47.9375 62.7847V63.2894L48.4453 63.996L48.3438 64.3997L48.1406 64.5007H47.125L45.5 64.0969L43.875 63.2894L43.0625 62.6838L41.9453 61.4726L41.4375 60.9679L41.1328 60.8669V62.4819L41.5391 63.4913L42.25 64.6016L43.0625 65.611L43.3672 66.3175L43.1641 66.5194L40.625 66.6203L40.8281 67.125L41.6406 67.6297L43.2656 68.1344L45.9062 68.6391L49.2578 69.0428H54.1328L54.0312 69.2447L52 70.0522L51.5938 70.1531L49.7656 70.254H46.1094L42.8594 70.0522L38.4922 69.5475L35.9531 68.9419L33.8203 68.1344L31.4844 66.9231L30.5703 66.1156L30.6719 65.9138L31.8906 66.1156L33.5156 66.4185L34.8359 66.5194L34.4297 66.1156L31.6875 65.0053L29.8594 63.996L28.3359 62.9866L26.4062 61.5735L25.2891 60.6651L24.0703 59.5548L23.2578 58.8482L22.1406 57.637L21.2266 56.3248L20.1094 54.2051L18.8906 52.4892L18.2812 51.6817L17.7734 50.4705L16.5547 48.5527L16.0469 47.4424L15.8438 46.8368V46.3321L16.1484 46.6349L16.9609 48.3508L17.7734 49.4611L18.4844 50.3695L18.6875 50.4705L18.2812 49.2592L17.6719 47.8461L17.7734 47.6443L18.8906 48.8555L19.9062 51.278L20.7188 52.893L21.7344 54.6089L22.75 56.022L23.6641 57.1323L24.5781 58.1417L26.5078 60.0595L27.9297 61.1698L29.25 62.0782L30.6719 62.7847L30.9766 62.8857L30.5703 62.1791L29.25 61.0688L28.1328 60.1604L27.1172 59.252L25.7969 57.8389L24.4766 56.1229L23.4609 54.6089L22.5469 53.0948L21.3281 50.7733L20.3125 48.4518L18.7891 44.1115L17.875 41.9918L17.2656 41.0834L16.9609 40.9824V39.6703L17.0625 39.5693Z" fill="#6AC2EB"/>
<path d="M90.6953 38.8628H92.1172L93.9453 39.0647L95.875 39.5693L97.1953 40.074L98.8203 40.8815L100.141 41.79L101.258 42.6984L102.273 43.7077L103.594 45.4237L104.609 47.2405L105.117 48.4518L105.625 50.1677L105.93 52.1864V54.7098L105.625 56.6276L105.117 58.2426L104.609 59.4539L103.695 61.1698L102.781 62.381L101.867 63.3904L100.648 64.6016L99.0234 65.7119L96.8906 66.8222L95.3672 67.3269L94.25 67.6297L92.7266 67.8316H89.9844L88.0547 67.5288L86.0234 66.9232L84.2969 66.1157L83.0781 65.3082L81.7578 64.2988L80.2344 62.7848L79.1172 61.2707L78.3047 59.8576L77.4922 57.8389L77.0859 56.5267L76.7812 54.3061V52.4892L77.0859 50.2686L77.6953 48.2499L78.7109 46.1302L79.5234 44.919L80.3359 43.9096L81.4531 42.6984L82.875 41.5881L84.6016 40.4778L86.2266 39.7712L88.2578 39.1656L89.4766 38.9637L90.6953 38.8628ZM89.8828 40.9825L87.5469 41.4871L86.0234 42.0928L84.7031 42.7993L83.5859 43.6068L82.5703 44.5152L81.7578 45.3227L80.7422 46.7358L79.8281 48.4518L79.2188 50.2686L78.9141 51.7827V54.8108L79.3203 56.8295L79.8281 58.3435L80.7422 60.0595L81.7578 61.3716L82.875 62.5829L84.2969 63.6932L85.9219 64.6016L87.4453 65.2072L89.0703 65.611L90.6953 65.8129H92.0156L94.25 65.51L96.3828 64.8035L98.3125 63.7941L99.9375 62.4819L100.852 61.5735L101.969 60.0595L102.883 58.3435L103.492 56.5267L103.797 55.0126L103.898 53.0948L103.695 51.0761L103.188 49.1583L102.375 47.3415L101.562 46.1302L100.75 45.1209L99.3281 43.7077L98.0078 42.7993L96.2812 41.8909L94.4531 41.2853L92.625 40.9825H89.8828Z" fill="#FEFEFD"/>
<path d="M89.8828 4.24121H93.0312L94.7578 4.54402L96.4844 5.0487L98.3125 5.8562L99.9375 6.86556L101.055 7.77399L101.969 8.68242L102.07 9.38898L101.664 9.99459L101.359 10.1965H100.648L99.7344 9.48991L98.9219 8.78336L97.7031 7.97586L95.6719 7.06743L93.7422 6.56275L91.9141 6.36088H90.4922L88.5625 6.66369L86.8359 7.16837L85.2109 7.97586L84.0938 8.68242L82.9766 9.59085L81.9609 10.6002L80.9453 12.0133L80.3359 13.0227L79.7266 14.5367L79.3203 15.8489L79.1172 16.9592L79.0156 19.0789L79.2188 20.8957L79.7266 22.8135L80.4375 24.5295L81.25 25.8416L82.0625 26.851L82.7734 27.6585L84.1953 28.7688L85.5156 29.5763L86.8359 30.1819L88.4609 30.6866L90.2891 30.9894H92.5234L94.3516 30.6866L95.9766 30.1819L96.8906 29.7782L98.4141 28.9707L99.4297 28.1632L100.547 27.2547L101.258 27.1538L101.867 27.5576L102.07 28.2641L101.766 28.9707L100.648 29.98L99.3281 30.8885L97.7031 31.7969L96.1797 32.4025L94.4531 32.9072L93.1328 33.1091H89.6797L87.5469 32.7053L85.8203 32.0997L84.1953 31.2922L82.6719 30.2828L81.25 29.0716L80.5391 28.365L79.2188 26.6491L78.2031 24.8323L77.5938 23.3182L77.1875 21.9051L76.8828 20.0882V17.363L77.1875 15.4452L77.7969 13.4264L78.6094 11.7105L79.3203 10.6002L80.2344 9.38898L81.5547 7.97586L82.9766 6.86556L84.6016 5.8562L86.125 5.14964L87.6484 4.64496L89.8828 4.24121Z" fill="#FEFEFD"/>
<path d="M58.0938 47.0386H58.2969L59.0078 47.947L60.2266 48.8554L61.3438 49.3601L62.4609 49.6629L63.1719 49.7639H65.1016L66.7266 49.562L68.7578 48.9564L69.4688 48.7545L69.2656 49.1582L68.0469 50.4704L67.0312 51.4798L66.2188 52.1863L65.2031 53.0948L63.4766 54.4069L61.75 55.5172L59.6172 56.5266L58.2969 56.4257L55.25 56.0219L52.2031 55.7191L49.8672 55.2144L47.5312 54.5079L44.8906 53.4985L44.3828 53.2966V53.0948L43.875 52.9938L41.9453 51.9845L41.7422 51.5807H46.9219L49.5625 51.177L51.2891 50.6723L53.4219 49.562L55.1484 48.5526L58.0938 47.0386Z" fill="#1A82BF"/>
<path d="M145.742 13.4268H148.078L149.602 13.7296L151.227 14.3352L152.75 15.2436L153.969 16.3539L154.883 17.3633L155.695 18.6755L156.203 19.6848L156.609 20.997L156.812 22.0064V32.5038L156.406 33.0084L156.203 33.1094H155.492L154.984 32.6047L154.883 32.4028L154.781 29.2738L153.867 30.3841L152.75 31.2925L151.43 32.1L150.008 32.7056L148.281 33.1094H145.438L143.812 32.7056L142.289 32.1L140.766 31.0907L139.445 29.8794L138.531 28.6682L137.617 26.9523L137.109 25.2363L137.008 24.6307V21.9054L137.414 20.1895L137.922 18.9783L138.734 17.5652L139.953 16.152L141.07 15.2436L142.391 14.4361L143.812 13.8305L145.031 13.5277L145.742 13.4268ZM145.844 15.3446L144.422 15.6474L143.203 16.152L142.086 16.8586L141.07 17.767L140.359 18.5745L139.547 19.9876L139.039 21.6026L138.836 22.9148L138.938 24.4288L139.344 26.0438L140.156 27.6588L140.969 28.6682L141.781 29.4757L143.203 30.3841L144.422 30.8888L145.844 31.1916H147.875L149.297 30.8888L150.312 30.485L151.328 29.9804L152.445 29.0719L153.359 28.0626L154.172 26.7504L154.68 25.2363L154.883 24.227V22.4101L154.68 21.1989L154.172 19.8867L153.562 18.7764L152.648 17.6661L151.734 16.8586L150.414 16.0511L148.992 15.5464L147.875 15.3446H145.844Z" fill="#FEFEFD"/>
<path d="M157.93 48.1489H160.875L162.5 48.5527L164.023 49.1583L165.141 49.8648L166.258 50.7733L167.273 51.8836L168.289 53.3976L168.898 54.9117L169.305 56.6276L169.406 67.0241L169 67.6297L168.695 67.8316H168.086L167.578 67.4278L167.477 67.2259V63.895L166.969 64.3997L166.359 65.1063L164.938 66.2166L163.719 66.9231L162.094 67.5287L160.57 67.8316H158.234L156.711 67.5287L155.086 66.9231L153.766 66.1156L152.75 65.3081L151.633 64.1978L150.719 62.7847L150.008 61.2707L149.602 59.7566L149.5 59.0501V56.8295L149.906 55.0126L150.414 53.7004L150.922 52.792L151.734 51.6817L152.547 50.7733L153.969 49.663L154.984 49.0574L156.609 48.4517L157.93 48.1489ZM158.844 49.9658L157.117 50.2686L155.898 50.7733L154.68 51.4798L153.461 52.5901L152.648 53.5995L151.836 55.2145L151.43 56.8295V58.9491L151.836 60.6651L152.648 62.28L153.359 63.1885L153.867 63.7941L155.086 64.7025L156.711 65.51L157.93 65.8128L158.641 65.9138H160.164L161.688 65.6109L163.008 65.1063L164.227 64.3997L165.445 63.2894L166.258 62.1791L166.867 60.9679L167.273 59.6557L167.375 59.0501V56.9304L166.969 55.2145L166.156 53.5995L165.445 52.6911L164.43 51.6817L163.312 50.9751L162.195 50.4705L160.672 50.0667L159.961 49.9658H158.844Z" fill="#FEFEFD"/>
<path d="M27.7266 23.2173L28.2344 23.3182V24.0248L27.9297 24.6304L27.1172 25.4379L26.2031 26.5482L25.4922 27.5576L24.2734 29.6772L23.4609 31.595L22.8516 33.4119L22.3438 35.6325L22.0391 38.055L21.9375 39.569L21.6328 40.3765L21.3281 41.5877L21.0234 44.414L20.7188 44.7168L20.2109 44.414L19.5 43.5055L18.0781 40.7802L17.3672 39.7709L17.0625 39.6699V40.9821L17.4688 41.184L18.0781 42.1934L19.0938 44.7168L20.4141 48.4514L21.4297 50.773L22.4453 52.7917L23.8672 55.1132L24.8828 56.5263L26.2031 58.1413L27.4219 59.4535L28.4375 60.3619L29.8594 61.4722L30.7734 62.2797L30.9766 62.5825V62.8853L30.3672 62.7844L28.7422 61.876L27.0156 60.5638L25.6953 59.3526L23.7656 57.4348L22.6484 56.0217L21.6328 54.6086L20.5156 52.6908L19.7031 51.0758L18.7891 48.8552L17.7734 47.7449H17.5703L16.25 44.0102L15.7422 42.0924L15.4375 39.1653V37.0456L15.6406 35.2287L16.1484 33.1091L16.8594 31.4941L17.7734 30.081L18.1797 29.6772H18.6875L18.9922 30.2828V31.7969L18.6875 34.2194L18.3828 36.0362V38.9634L18.7891 40.7802L19.1953 41.6887L19.7031 42.1934L20.0078 42.0924L20.2109 41.5877L20.3125 40.5784L20.4141 38.2568L20.8203 35.1278L21.4297 32.4025L22.0391 30.4847L22.5469 29.1725L23.3594 27.5576L23.9688 26.5482L24.7812 25.5388L25.8984 24.4285L27.3203 23.4192L27.7266 23.2173Z" fill="#1981BE"/>
<path d="M197.844 48.1489H200.281L201.805 48.4517L203.43 49.0574L204.445 49.663L205.461 50.5714L206.172 51.4798L206.578 52.3883L206.68 52.792V53.8014L206.375 54.3061L205.969 54.5079L205.258 54.407L204.852 53.9023L204.547 52.6911L203.938 51.7826L203.023 51.0761L201.5 50.4705L199.977 50.1677H197.844L195.914 50.6723L194.594 51.3789L193.781 52.1864L193.477 52.792L193.375 53.8014L193.781 54.9117L194.492 55.6182L195.508 56.2239L196.523 56.6276L198.25 56.9304L200.789 57.1323L202.312 57.536L203.531 58.0407L204.547 58.6463L205.562 59.5548L206.273 60.5641L206.68 61.6744V63.1885L206.273 64.2988L205.664 65.2072L204.75 66.1156L203.43 66.9231L201.5 67.6297L200.281 67.8316H197.844L196.219 67.5287L194.594 66.9231L193.477 66.2166L192.461 65.3081L191.75 64.1978L191.445 63.3903V61.9772L191.852 61.5735L192.562 61.4726L193.07 61.7754L193.273 62.0782L193.578 63.3903L194.188 64.2988L195.305 65.0053L196.523 65.51L197.945 65.8128H200.078L201.906 65.4091L203.328 64.7025L204.242 63.895L204.648 62.9866V61.8763L204.141 60.8669L203.125 60.0594L201.5 59.3529L199.57 59.0501L197.234 58.8482L195.711 58.4445L194.492 57.9398L193.375 57.2332L192.562 56.5267L191.852 55.5173L191.445 54.5079L191.344 53.4986L191.547 52.2873L192.156 51.0761L193.07 50.0667L194.086 49.3602L195.609 48.6536L197.133 48.2499L197.844 48.1489Z" fill="#FEFEFD"/>
<path d="M41.1328 60.8667L41.5391 60.9676L42.0469 61.4723L43.3672 62.8854L44.7891 63.6929L46.1094 64.1976L47.125 64.3995H48.1406L48.3438 64.2985L48.2422 63.7939L47.8359 63.2892L47.9375 62.7845L48.8516 62.8854L51.3906 63.3901L53.2188 63.592H56.2656L58.7031 63.2892L60.9375 62.7845L63.0703 62.0779L64.7969 61.2704L65.5078 60.8667L65.7109 60.9676L63.8828 62.7845L63.0703 63.491L61.75 64.6014L59.8203 66.0145L57.9922 67.1248L57.4844 67.4276H57.2812V67.6294L54.9453 68.8407L54.3359 69.1435H49.2578L45.9062 68.7398L43.2656 68.2351L41.6406 67.7304L40.8281 67.2257L40.625 67.0238V66.6201L40.8281 66.5191L43.1641 66.4182L43.2656 66.2163L42.6562 65.207L41.8438 64.1976L41.1328 62.8854L41.0312 62.4817V61.0686L41.1328 60.8667Z" fill="#1A82BF"/>
<path d="M172.656 48.0479H173.266L173.875 48.5525L173.977 48.8553V50.975H174.18L174.383 50.5713L175.602 49.5619L177.023 48.7544L178.445 48.2497L179.664 48.0479H181.289L182.812 48.3507L184.336 48.9563L185.453 49.6628L186.469 50.5713L187.383 51.5806L188.297 53.1956L188.805 54.9115L188.906 55.719V67.2258L188.5 67.7305L188.297 67.8314H187.484L186.977 67.2258L186.875 55.82L186.672 54.6087L186.062 53.1956L185.047 51.8834L184.031 51.0759L182.711 50.4703L181.594 50.1675L180.984 50.0666H179.969L178.445 50.3694L177.227 50.8741L176.109 51.6816L175.195 52.6909L174.586 53.7003L174.18 55.0125L173.977 56.6275V67.1249L173.57 67.7305L173.367 67.8314H172.555L172.047 67.3267V48.6535L172.453 48.1488L172.656 48.0479Z" fill="#FEFEFD"/>
<path d="M24.4766 49.9658L24.7812 50.2686L25.8984 52.0855L26.9141 53.3977L28.1328 54.7098L29.25 55.7192L30.7734 56.7286L31.9922 57.3342L33.5156 57.8389L35.2422 58.1417L37.4766 58.3436H43.0625L43.9766 58.6464L45.6016 59.4539L47.4297 60.4632L49.0547 61.1698L50.8828 61.7754L52.7109 62.0782H59.4141L61.1406 61.6745L63.7812 60.5642L65.8125 59.5548L67.4375 58.5454L67.6406 58.6464L66.7266 59.7567L65.8125 60.766L63.9844 61.7754L61.9531 62.5829L59.7188 63.1885L57.2812 63.5923L56.2656 63.6932H52.9141L50.1719 63.2894L47.9375 62.7848V63.2894L48.4453 63.996L48.3438 64.3997L48.1406 64.5007H47.125L45.5 64.0969L43.875 63.2894L43.0625 62.6838L41.9453 61.4726L41.4375 60.9679L41.2344 60.867H40.2188L39.4062 61.2707L38.3906 61.9773L38.1875 62.0782H37.4766L35.4453 61.3717L33.5156 60.766L32.0938 60.2613L30.4688 59.151L29.3516 58.2426L28.2344 57.1323L27.2188 55.7192L26.1016 53.8014L25.0859 51.6817L24.4766 50.1677V49.9658Z" fill="#FDFEFD"/>
<path d="M160.164 13.3257L160.875 13.4266L161.383 13.9313V16.3538L161.891 15.8491L163.109 14.8397L164.531 14.0322L166.055 13.5276L166.664 13.4266H169.305L170.828 13.8304L172.453 14.6379L173.367 15.3444L174.18 16.051L175.094 17.2622L175.906 18.8772L176.312 20.4922V32.6046L175.906 33.1092L175.195 33.2102L174.586 32.8064L174.484 32.6046L174.383 21.6025L174.18 20.1894L173.773 18.9781L173.164 17.9688L172.25 16.9594L171.234 16.2528L170.117 15.7482L168.898 15.4454H166.969L165.648 15.7482L164.125 16.5557L163.008 17.565L162.094 18.9781L161.688 20.0884L161.484 21.5015L161.383 32.6046L160.773 33.2102H160.164L159.656 32.8064L159.555 32.6046V13.9313L160.062 13.4266L160.164 13.3257Z" fill="#FEFEFD"/>
<path d="M23.4609 35.4307H23.5625L23.8672 36.9447L24.375 39.9728L24.8828 41.6887L25.4922 43.3037L26.1016 44.3131L26.9141 45.8271L27.7266 47.0384L28.7422 48.4515L29.8594 49.7637L30.7734 50.773L31.8906 51.9843L33.1094 53.1955L34.125 54.003L35.4453 54.8105L37.375 55.7189L39.4062 56.4255L42.0469 57.132L43.9766 57.5358L45.9062 57.8386L49.1562 58.1414H54.0312L57.1797 57.7376L59.2109 57.233L61.1406 56.4255L62.9688 55.4161L64.5938 54.2049L65.9141 53.1955L67.2344 51.9843L69.5703 49.6627L70.4844 48.5524L71.7031 47.1393L72.9219 45.5243L73.0234 45.9281L72.1094 50.0665L71.7031 51.4796L70.1797 52.6908L68.3516 54.003L66.8281 55.0124L65.1016 56.0217L62.7656 57.233L60.7344 58.1414L58.6016 58.9489L56.0625 59.6554L53.7266 60.1601L51.5938 60.4629H50.1719L48.2422 59.9582L46.5156 59.3526L45.0938 58.6461L44.2812 58.1414L43.5703 57.9395L41.3359 57.8386L39.3047 57.132L35.6484 55.7189L35.5469 55.8198L36.6641 56.8292V56.9302L35.75 56.8292L34.0234 56.0217L32.5 54.9114L31.0781 53.7002L29.0469 51.6814L28.1328 50.5711L27.1172 49.259L26.2031 47.7449L25.3906 46.1299L24.6797 44.3131L24.1719 42.3953L23.8672 40.6794L23.5625 37.7522L23.4609 35.4307Z" fill="#FDFEFD"/>
<path d="M140.766 48.5527L142.391 49.2588L143.609 50.0664L144.625 50.9746L145.336 51.6816L146.352 53.1953L146.961 54.5078L147.367 55.8203L147.57 57.334V58.1416L147.164 58.7471L146.859 58.9492H129.695L130.203 60.8672L131.016 62.4814L132.031 63.6934L133.352 64.7021L134.875 65.4092L136.703 65.8125H138.43L139.953 65.5098L141.477 64.9043L142.492 64.1973L143.508 63.3906L144.117 63.2891L144.625 63.5918L144.93 63.9961V64.6016L144.117 65.5098L142.695 66.5195L141.172 67.2256L139.953 67.6299L138.734 67.8311H136.398L134.57 67.4277L133.25 66.9229L132.031 66.2168L131.016 65.4092L129.898 64.2988L128.883 62.7842L128.172 61.2705L127.766 59.7568L127.664 59.1514V56.9307L127.969 55.3154L128.578 53.7002L129.492 52.1865L130.609 50.874L131.727 49.9658L133.047 49.1582L134.164 48.6533L135.586 48.25L136.195 48.1484H139.039L140.766 48.5527ZM137.211 49.9658L135.383 50.2686L134.266 50.6719L132.844 51.4795L131.727 52.4893L130.812 53.5996L130.203 54.8105L129.797 56.123L129.695 57.0312H145.539L145.336 55.7188L144.828 54.4072L144.219 53.3975L143.406 52.3877L142.594 51.6816L141.172 50.7734L139.75 50.2686L138.023 49.9658H137.211Z" fill="#FEFEFD"/>
<path d="M127.867 13.7295L129.797 14.5371L130.914 15.2432L132.234 16.3535L133.148 17.4639L133.961 18.7764L134.469 19.8867L134.875 21.2998L134.977 22.0059V23.6211L134.57 24.126L134.367 24.2266H117.102L117.812 26.5488L118.625 27.9619L119.539 28.9707L120.352 29.6777L121.773 30.4854L123.398 30.9893L124.008 31.0908H126.242L127.867 30.6865L129.492 29.8789L130.609 28.9707L131.016 28.668H131.828L132.336 29.1729V29.9805L131.625 30.7881L130.508 31.5957L128.781 32.5039L127.156 33.0088L126.547 33.1094H123.602L121.875 32.7051L120.453 32.0996L119.336 31.3936L118.219 30.4854L117.203 29.375L116.289 27.9619L115.578 26.3467L115.273 25.2363L115.172 24.6309V22.0059L115.578 20.1895L116.391 18.3721L117.406 16.959L118.117 16.1523L119.539 15.042L120.961 14.2344L122.383 13.7295L123.906 13.4268H126.242L127.867 13.7295ZM124.109 15.3447L123.5 15.4453L122.078 15.8486L120.859 16.4551L119.742 17.2627L118.625 18.4736L117.914 19.584L117.406 20.8955L117.102 22.3086H133.047L132.742 20.7949L132.234 19.584L131.219 18.0693L130.406 17.2627L128.984 16.2529L127.766 15.748L126.039 15.3447H124.109Z" fill="#FEFEFD"/>
<path d="M116.594 48.1489H119.438L121.164 48.5527L122.789 49.2592L123.906 49.9658L125.125 51.0761L125.328 51.3789V51.9845L124.922 52.4892L124.719 52.5901H124.008L122.484 51.3789L121.062 50.6723L119.641 50.2686L119.133 50.1677H116.898L115.172 50.5714L113.75 51.278L112.734 52.0855L112.227 52.5901L111.516 53.3976L110.805 54.6089L110.398 55.7192L110.195 56.7285L110.094 58.3435L110.297 59.7566L110.805 61.3716L111.719 62.8857L112.531 63.7941L113.75 64.7025L115.477 65.51L116.898 65.8128H119.133L120.758 65.4091L121.977 64.9044L123.297 63.996L124.008 63.3903H124.719L125.227 63.7941L125.328 63.996V64.6016L124.617 65.4091L123.398 66.3175L121.875 67.125L120.25 67.6297L119.234 67.8316H116.797L114.969 67.4278L113.445 66.8222L112.328 66.1156L111.312 65.3081L110.398 64.3997L109.484 63.0875L108.672 61.4726L108.266 60.1604L108.062 58.8482V57.2332L108.367 55.4164L108.875 54.0032L109.383 52.9939L110.398 51.5808L111.719 50.2686L113.242 49.2592L114.562 48.6536L115.984 48.2499L116.594 48.1489Z" fill="#FEFEFD"/>
<path d="M27.2188 45.0195L28.1328 45.3223L30.2656 46.1298L33.0078 46.7355L35.75 47.0383H37.8828L40.0156 46.8364L42.8594 46.4326L46.6172 45.6252L47.6328 45.3223L48.4453 46.4326L49.2578 47.0383L50.6797 47.7448L52.7109 48.4514L53.5234 48.7542L53.0156 49.1579L52 49.7635L50.4766 50.3692L48.8516 50.7729L46.5156 51.0757H41.9453L40.9297 50.9748L40.3203 50.0664L40.0156 49.4607V49.2589L38.4922 48.9561H36.5625L34.2266 49.4607L33.5156 49.5617H32.2969L30.4688 49.2589L29.8594 48.9561L28.6406 47.442L27.625 45.928L27.2188 45.2214V45.0195Z" fill="#1B83BF"/>
<path d="M36.9688 49.4609H38.2891L39.6094 49.7637L40.1172 50.7731L40.9297 51.7825L41.7422 52.489L43.3672 53.3975L46.3125 54.6087L49.3594 55.6181L51.3906 56.1227L56.7734 56.7284L57.7891 56.9302L57.4844 57.1321L55.5547 57.4349L53.2188 57.6368H49.8672L46.1094 57.334L43.1641 56.8293L40.625 56.2237L37.2734 55.1134L35.6484 54.3059L34.0234 53.2965L32.5 51.8834L31.5859 50.874L31.0781 50.3694L30.875 49.9656L31.7891 50.0666H34.0234L35.9531 49.5619L36.9688 49.4609Z" fill="#1B82BF"/>
<path d="M12.0859 14.9409L12.5938 15.3447L12.4922 16.0512L11.9844 17.4643L11.7812 18.2718V18.8774L12.1875 19.0793L13.2031 19.2812L13.4062 19.3821V20.1896L12.6953 21.8046L11.7812 23.7224L11.2734 25.1355L11.0703 25.943L10.9688 27.8608L10.5625 29.8795L10.3594 30.9898L10.2578 32.2011V36.0367L10.3594 37.2479L10.8672 39.3676L11.4766 41.1844L12.2891 43.1022L13.6094 45.7266L14.4219 47.2406L14.7266 48.25V48.7547L14.1172 49.2593L13.6094 49.5622L13.2031 50.4706L13.1016 50.8743V52.4893L13.5078 54.1043L14.625 56.224L15.9453 58.0408L16.8594 59.1511L18.0781 60.5642L19.6016 62.1792L21.2266 63.6933L22.5469 64.7026L24.375 65.712L26.7109 66.8223L27.2188 66.9232L28.6406 67.8317L30.3672 68.7401L32.3984 69.5476V69.6485L31.4844 69.5476L29.1484 68.942L26.7109 68.0335L24.7812 67.0242L23.3594 66.0148L22.2422 65.1064L20.2109 63.2895L19.0938 62.1792L18.3828 61.3717L17.3672 60.2614L16.4531 59.1511L15.0312 57.3343L13.8125 55.6183L13 54.0034L12.5938 52.6912L12.3906 51.379L12.4922 49.9659L12.8984 49.1584L13.2031 48.8556L14.1172 48.6537L13.8125 47.6444L12.6953 45.5247L11.6797 43.6069L10.5625 41.1844L9.85156 38.8629L9.44531 36.5413L9.34375 35.532V31.3936L9.44531 29.7786L9.03906 28.5674L8.9375 27.558L9.24219 26.1449L10.0547 24.429L11.0703 22.9149L11.5781 21.9055L11.6797 20.9971L11.1719 20.6943L10.5625 20.2906L10.4609 20.0887V19.3821L10.8672 17.8681V16.7578L10.5625 16.6568L9.75 17.3634L8.83594 18.6756L7.82031 20.4924L6.90625 22.4102L5.99219 24.9336L5.28125 27.4571L4.67188 30.3842L4.26562 33.1095L4.0625 35.2292L3.96094 36.9451V40.1751L4.16406 43.1022L4.36719 44.7172V45.2219L4.16406 44.8181L3.65625 42.3957L3.35156 40.0741L3.25 38.8629V34.0179L3.55469 31.1917L4.16406 28.0627L4.97656 25.2364L5.99219 22.5112L6.70312 20.8962L7.00781 20.5934L8.63281 17.969L9.64844 16.5559L10.6641 15.6475L12.0859 14.9409Z" fill="#6BC3EC"/>
<path d="M105.727 5.75537H106.539L107.047 6.26005L107.148 6.56286V25.9427L107.352 27.8605L107.758 29.0717L108.367 29.9801L109.078 30.5858L110.094 30.9895L111.719 31.1914L112.227 31.4942L112.531 31.8979V32.5036L112.125 33.0082L111.922 33.1092H110.195L108.773 32.7054L107.555 31.9989L106.539 30.9895L105.727 29.5764L105.219 27.7595V6.26005L105.727 5.75537Z" fill="#FEFEFD"/>
<path d="M71.3984 51.5806H71.6016L71.2969 52.5899L70.1797 54.7096L68.7578 56.8293L68.1484 57.5358L66.625 58.5452L64.0859 59.7564L61.9531 60.463L60.2266 60.8667L58.7031 61.0686L57.2812 61.1695H55.25L52.8125 60.9677L50.4766 60.5639V60.463L53.2188 60.1602L55.6562 59.6555L57.8906 59.0499L59.9219 58.3433L62.3594 57.334L64.7969 56.1227L66.5234 55.1133L68.3516 53.9021L69.875 52.7918L71.2969 51.6815L71.3984 51.5806Z" fill="#1A82BF"/>
<path d="M58.0938 47.0386H58.2969L59.0078 47.947L60.2266 48.8554L61.3438 49.3601L62.4609 49.6629L63.1719 49.7639H65.1016L66.7266 49.562L68.7578 48.9564L69.4688 48.7545L69.2656 49.1582L68.0469 50.4704L67.0312 51.4798L66.0156 51.7826L64.3906 51.9845H63.1719L61.6484 51.6817L60.4297 51.177L59.3125 50.3695L58.7031 49.7639H58.2969L58.3984 50.6723L59.2109 52.2873L59.1094 52.691L58.6016 52.4891L57.5859 51.5807L56.875 50.4704L56.3672 49.6629L55.8594 49.7639L55.4531 50.9751L54.9453 51.4798L54.4375 51.3788L54.2344 51.177L53.4219 51.2779L51.1875 51.7826L50.2734 51.8835L49.3594 52.2873L47.4297 52.4891L46.9219 52.3882L46.8203 52.2873L42.25 52.1863L41.7422 51.7826L41.8438 51.5807H46.9219L49.5625 51.177L51.2891 50.6723L53.4219 49.562L55.1484 48.5526L58.0938 47.0386Z" fill="#FDFEFD"/>
<path d="M39.8125 61.9771H40.1172L41.4375 64.7023L42.0469 65.7117L41.9453 66.1154H40.1172L39.8125 66.3173L39.9141 67.0239L40.5234 67.7304L41.9453 68.437L44.1797 68.9417L44.0781 69.2445H41.3359L38.5938 68.8407L36.1562 68.3361L34.0234 67.6295L33.1094 67.0239L33.2109 66.7211H34.9375L35.6484 66.5192L35.1406 66.0145L33.5156 65.207L31.9922 64.6014L30.875 63.9958L30.5703 63.693L30.6719 63.3902L31.2812 63.4911L32.6016 63.8948L33.2109 63.9958L34.5312 63.7939H35.9531L38.1875 64.8033L39.1016 64.9042H39.3047L39.1016 63.9958V62.7845L39.5078 62.1789L39.8125 61.9771Z" fill="#FFFFFE"/>
<path d="M23.3594 34.3203L23.5625 34.7241L23.6641 35.9353L23.5625 36.339L23.8672 39.7709L24.1719 41.8906L24.5781 43.6065L25.2891 45.7261L26.1016 47.4421L27.3203 49.3599L28.3359 50.672L29.5547 52.0851L31.4844 54.0029L32.6016 54.9114L34.2266 56.0217L35.75 56.7282L36.5625 56.8292L35.3438 55.7189L35.6484 55.6179L39.3047 57.031L40.9297 57.6367L40.8281 57.8385L38.4922 57.7376L36.0547 57.4348L33.7188 56.9301L32.1953 56.4254L30.6719 55.6179L29.4531 54.5076L28.5391 53.5992L27.4219 52.1861L26.7109 51.1767L25.4922 49.158L24.375 46.8364L23.5625 44.313L23.2578 42.4962L23.1562 40.8812V37.2475L23.3594 34.3203Z" fill="#1B83C0"/>
<path d="M17.1641 40.9824L17.6719 41.4871L18.4844 43.1021L19.6016 46.1302L20.4141 48.4517L21.4297 50.7733L22.4453 52.792L23.8672 55.1135L24.8828 56.5267L26.2031 58.1416L27.4219 59.4538L28.4375 60.3622L29.8594 61.4725L30.7734 62.28L30.9766 62.5828V62.8857L30.3672 62.7847L28.7422 61.8763L27.0156 60.5641L25.6953 59.3529L23.7656 57.4351L22.6484 56.022L21.6328 54.6089L20.5156 52.6911L19.7031 51.0761L18.8906 49.0573L18.4844 47.7452L17.5703 44.9189L17.0625 43.203V41.1843L17.1641 40.9824Z" fill="#174395"/>
<path d="M36.9688 49.4609H38.2891L39.6094 49.7637L40.1172 50.7731L40.9297 51.7825L41.7422 52.489L43.3672 53.3975L46.3125 54.6087L49.3594 55.6181L51.2891 56.1228V56.2237H49.6641L47.7344 56.0218L45.6016 55.5171L43.1641 54.6087L41.4375 53.7003L40.4219 52.8928L39.6094 51.9844H39.4062V52.9937L39.5078 53.7003L39 53.5993L38.3906 53.1956L38.1875 53.7003L37.6797 53.5993L37.0703 53.1956L36.8672 52.7918L36.7656 51.2778H33.5156L31.5859 50.7731L30.875 50.1675V49.9656L31.7891 50.0666H34.0234L35.9531 49.5619L36.9688 49.4609Z" fill="#FEFEFD"/>
<path d="M27.2188 45.0195L28.1328 45.3223L30.2656 46.1298L33.0078 46.7355L35.75 47.0383H37.8828L40.0156 46.8364L42.8594 46.4326L46.6172 45.6252L47.6328 45.3223L48.4453 46.4326L49.2578 47.0383L50.6797 47.7448L52.7109 48.4514L53.5234 48.7542L53.0156 49.1579L52.6094 49.2589L50.9844 48.8551L50.4766 48.7542L49.7656 49.4607L48.9531 49.5617L48.0391 49.3598L47.6328 48.9561L47.8359 48.5523L47.9375 48.1486L47.125 47.6439L46.3125 47.2401L46.2109 47.0383V46.2308L42.3516 47.1392L39.7109 47.5429L36.2578 47.6439L33.4141 47.442L30.6719 47.0383L28.2344 46.2308L27.625 45.928L27.2188 45.2214V45.0195Z" fill="#FEFEFD"/>
<path d="M62.1562 45.2217H62.8672L64.2891 46.0292L65.8125 46.6348L67.6406 47.1395L69.1641 47.3413L69.2656 47.5432L67.6406 48.3507L66.0156 48.7545L65.1016 48.8554H64.1875L62.5625 48.5526L61.2422 48.0479L60.0234 47.2404L59.4141 46.6348L59.5156 46.332L61.1406 45.5245L62.1562 45.2217Z" fill="#1B83C0"/>
<path d="M22.0391 46.1299L22.2422 46.2308L23.4609 49.7636L24.6797 52.5898L25.8984 55.1132L26.9141 56.6273L27.625 57.5357L28.5391 58.5451L29.3516 59.3526L30.7734 60.4629L32.0938 61.2704L33.6172 62.0779L33.2109 62.1788L31.6875 61.6741L29.7578 60.6647L28.5391 59.7563L27.5234 58.8479L26.1016 57.4348L24.7812 55.7189L23.7656 54.0029L23.2578 52.8926L22.5469 50.773L22.0391 48.7542L21.8359 47.0383V46.3318L22.0391 46.1299Z" fill="#FFFFFE"/>
<path d="M44.9922 65.4092L46.4141 65.712L48.6484 66.4185L50.5781 66.7214H51.8984L58.7031 66.0148H59.6172L59.1094 66.4185L57.6875 67.327L57.2812 67.5288L54.0312 67.9326L52.8125 68.0335H50.1719L48.6484 67.7307L46.9219 67.1251L45.8047 66.5195L44.8906 65.712L44.9922 65.4092Z" fill="#6BC3EC"/>
<path d="M53.7266 51.0762H54.0312L53.9297 51.5809L53.7266 52.4893L53.8281 53.3977L54.4375 54.8108V55.0127L53.9297 54.8108L53.3203 54.4071L52.5078 53.5996L52.1016 53.0949L51.4922 52.994L50.8828 53.1958H49.7656L48.75 52.893L47.7344 53.1958L46.9219 53.2968H45.2969L44.0781 53.0949L42.4531 52.2874V52.1865H46.8203L47.125 52.3883L48.75 52.2874L49.6641 52.0855L50.2734 51.7827L52.2031 51.4799L53.7266 51.0762Z" fill="#6BC3EC"/>
<path d="M51.4922 44.7168H52.4062L53.5234 45.5243L55.0469 46.3318L56.1641 46.8365L55.6562 47.2402L54.7422 47.644L54.3359 47.7449H53.625L52.1016 47.2402L50.4766 46.4327L49.5625 45.7262L49.3594 45.4234L50.6797 44.9187L51.4922 44.7168Z" fill="#1C83C0"/>
<path d="M35.8516 44.4141L37.2734 44.515L38.6953 45.4234L39.3047 45.7262L39.2031 45.9281H34.5312L32.0938 45.6253L30.7734 45.3225L31.1797 45.1206L33.0078 44.7169L34.3281 44.515L35.8516 44.4141Z" fill="#1D84C0"/>
<path d="M31.5859 50.7729L32.7031 50.9748L33.5156 51.1767H36.7656L36.8672 51.2776L36.9688 52.7917L37.2734 53.2964L37.6797 53.5992V54.0029L36.9688 53.902L36.1562 52.9936L35.2422 53.0945L34.7344 52.5898L34.8359 51.9842L34.2266 51.7823L32.1953 51.3786L31.5859 50.8739V50.7729Z" fill="#6BC3EC"/>
</svg>
